<svg width="48" height="48" version="1.1" xmlns="http://www.w3.org/2000/svg" desc="Created with imagetracer.js version 1.2.6" ><path fill="rgb(255,236,237)" stroke="rgb(255,236,237)" stroke-width="1" opacity="1" d="M 22.5 24 L 27 24.5 L 22.5 25 L 22.5 24 Z " /><path fill="rgb(255,236,237)" stroke="rgb(255,236,237)" stroke-width="1" opacity="1" d="M 14.5 37 L 15.5 39 L 14.5 37 Z " /><path fill="rgb(255,236,237)" stroke="rgb(255,236,237)" stroke-width="1" opacity="1" d="M 19.5 39 L 25 39.5 L 19.5 40 L 19.5 39 Z " /><path fill="rgb(255,255,255)" stroke="rgb(255,255,255)" stroke-width="1" opacity="1" d="M 0 0 L 48 0 L 48 48 L 0 48 L 0 0 Z M 30 9 Q 28 11 29 17 L 28 18 L 19 19 L 15 21 L 12 27 L 12 36 L 16 39 L 20 40 L 28 39 L 32 35 L 36 15 L 36 9 L 30 9 Z " /><path fill="rgb(255,255,255)" stroke="rgb(255,255,255)" stroke-width="1" opacity="1" d="M 20.5 25 L 27 25 L 27 27.5 L 24.5 33 Q 18.4 34.3 19 31.5 L 18 29.5 L 20.5 25 Z " /><path fill="rgb(255,164,169)" stroke="rgb(255,164,169)" stroke-width="1" opacity="1" d="M 31.5 9 L 34 9.5 L 31.5 10 L 31.5 9 Z " /><path fill="rgb(255,164,169)" stroke="rgb(255,164,169)" stroke-width="1" opacity="1" d="M 29.5 12 L 30 14.5 L 29 14.5 L 29.5 12 Z " /><path fill="rgb(255,164,169)" stroke="rgb(255,164,169)" stroke-width="1" opacity="1" d="M 23.5 18 L 29 18.5 L 23.5 19 L 23.5 18 Z " /><path fill="rgb(255,164,169)" stroke="rgb(255,164,169)" stroke-width="1" opacity="1" d="M 14.5 23 L 13.5 25 L 14.5 23 Z " /><path fill="rgb(255,164,169)" stroke="rgb(255,164,169)" stroke-width="1" opacity="1" d="M 26.5 29 L 27 31.5 L 26 31.5 L 26.5 29 Z " /><path fill="rgb(255,164,169)" stroke="rgb(255,164,169)" stroke-width="1" opacity="1" d="M 20.5 33 L 25 33.5 L 20.5 34 L 20.5 33 Z " /><path fill="rgb(255,88,98)" stroke="rgb(255,88,98)" stroke-width="1" opacity="1" d="M 34.5 9 Q 36.8 8.3 36 10.5 L 34.5 9 Z " /><path fill="rgb(255,88,98)" stroke="rgb(255,88,98)" stroke-width="1" opacity="1" d="M 16.5 21 L 15.5 23 L 16.5 21 Z " /><path fill="rgb(255,68,79)" stroke="rgb(255,68,79)" stroke-width="1" opacity="1" d="M 30 10 L 35 10 L 35 14.5 L 32 31.5 L 27.5 38 L 18.5 39 L 14 37 L 12 30.5 Q 13.1 23.1 18.5 20 L 29 19 L 30 10 Z M 21 24 L 17 30 L 18 33 Q 20 36 26 34 L 28 28 L 28 24 L 21 24 Z " /></svg>